<?xml version="1.0" encoding="utf-8"?>
<!-- Generator: Adobe Illustrator 16.0.0, SVG Export Plug-In . SVG Version: 6.00 Build 0)  -->
<!DOCTYPE svg PUBLIC "-//W3C//DTD SVG 1.1//EN" "http://www.w3.org/Graphics/SVG/1.1/DTD/svg11.dtd">
<svg version="1.1" id="Layer_1" xmlns="http://www.w3.org/2000/svg" xmlns:xlink="http://www.w3.org/1999/xlink" x="0px" y="0px"
	 width="614px" height="112px" viewBox="0 0 614 112" enable-background="new 0 0 614 112" xml:space="preserve">
<g>
	<path d="M65.824,56.213l1.635,0.182c6.719,0.363,8.896,1.635,9.624,2.18c0.545,0.544,1.813,2.358,1.813,9.44v23.974
		c0,1.09-0.182,1.997-0.727,2.543c-0.363,0.36-1.452,1.09-5.992,2.541c-2.18,0.729-4.357,1.271-6.72,1.452
		c-2.361,0.363-4.358,0.545-6.175,0.545c-10.172,0-18.891-3.813-25.787-11.075c-6.901-7.445-10.533-17.979-10.533-31.236
		c0-16.162,3.45-27.967,10.533-35.05C40.577,14.99,48.75,11.358,57.83,11.358s16.162,2.906,21.792,8.898
		c3.087,3.45,6.175,8.717,9.262,15.799l0.545,1.09h6.537l-1.27-35.231h-6.354l-0.545,1.09c-0.545,1.271-1.09,2.36-1.815,2.904
		c-0.359,0.363-1.09,0.727-3.447,0.727c-0.186,0-1.815-0.182-9.266-2.36c-5.811-1.634-11.804-2.542-17.797-2.542
		c-16.521,0-30.146,5.813-40.134,17.252c-9.078,10.351-13.8,22.882-13.8,37.228c0,16.344,5.811,29.781,17.434,39.588
		c10.354,8.898,23.245,13.258,38.5,13.258c8.172,0,16.707-1.453,25.605-4.541c11.805-3.994,14.165-6.354,14.165-8.717v-29.6
		c0-4.18,0.904-7.083,2.357-8.354c0.544-0.363,1.997-1.093,6.355-1.456l1.635-0.182v-6.175H65.824V56.213z"/>
	<path d="M215.283,9.905l1.634,0.182c4.901,0.545,8.354,1.635,9.986,3.45c0.906,0.908,2.359,4.177,2.359,14.165V66.93
		c0,9.262-1.09,16.161-3.27,20.521c-3.995,7.627-11.44,11.439-23.245,11.439c-10.532,0-17.615-3.634-21.247-11.078
		c-1.998-4.179-3.087-10.17-3.087-17.613v-48.49c0-6.537,1.271-8.535,1.997-9.262c0.726-0.729,3.087-1.998,10.17-2.359l1.635-0.183
		V3.549H146.09v6.356l1.634,0.183c6.901,0.543,9.264,1.815,9.988,2.541c0.727,0.728,1.998,2.725,1.998,9.262v47.035
		c0,9.625,1.634,17.434,5.085,23.428c6.174,11.078,17.979,16.892,34.867,16.892c17.066,0,28.875-5.813,35.229-17.07
		c3.271-5.989,5.085-14.524,5.085-25.239V27.523c0-9.808,1.453-12.894,2.361-13.983c1.09-1.271,3.632-2.906,10.17-3.632l1.634-0.183
		V3.551h-38.495v6.355L215.283,9.905L215.283,9.905L215.283,9.905z"/>
	<path d="M376.183,78.913c-3.633,8.172-7.812,13.258-12.168,15.256c-4.54,2.179-11.985,3.269-21.792,3.269
		c-11.441,0-15.255-0.361-16.525-0.728c-0.359-0.183-1.453-0.362-1.453-3.631V57.666h21.433c7.628,0,10.17,1.452,10.896,2.179
		c1.09,1.091,2.542,3.813,3.813,10.716l0.361,1.453h6.899v-38.32h-6.899l-0.361,1.453c-1.271,6.719-2.728,9.625-3.813,10.714
		c-0.727,0.907-3.269,2.36-10.896,2.36h-21.433V16.26c0-2.361,0.363-2.906,0.363-2.906s0.545-0.363,2.728-0.363h20.521
		c10.533,0,14.528,1.453,15.98,2.542c1.449,1.09,3.633,4.177,5.085,11.804l0.359,1.453h7.269L375.64,3.548h-83.72v6.355l1.635,0.182
		c6.719,0.545,8.896,1.816,9.624,2.542c0.727,0.728,1.814,2.906,1.814,9.263v67.012c0,6.897-1.271,8.717-1.814,9.262
		c-0.729,0.727-3.087,1.814-9.806,2.543l-1.637,0.182v6.174h84.625l7.813-29.057h-7.813L376.183,78.913z"/>
	<path d="M475.337,48.404l-13.259-8.173c-4.724-2.904-8.354-5.811-10.531-8.354c-1.997-2.361-3.087-5.267-3.087-8.717
		c0-3.813,1.271-6.538,3.993-8.717c2.727-2.18,5.991-3.27,9.625-3.27c4.901,0,9.986,1.816,15.071,5.448s8.717,9.988,11.078,19.25
		l0.362,1.453h7.083l-3.632-35.776h-6.178l-0.36,1.271c-0.363,1.271-0.729,2.361-1.271,3.087c-0.361,0.362-1.271,0.728-2.356,0.728
		c-0.186,0-1.453-0.183-7.813-2.361c-5.085-1.816-9.44-2.725-13.076-2.725c-8.717,0-15.979,2.725-21.429,8.172
		c-5.448,5.448-8.172,12.168-8.172,20.34c0,6.174,2.358,11.804,6.898,17.07c2.359,2.543,5.632,5.266,9.625,7.809l12.896,7.991
		c7.265,4.54,11.986,7.989,14.165,10.17c3.27,3.271,4.722,7.082,4.722,11.623c0,4.903-1.451,8.717-4.54,11.44
		c-3.269,2.726-6.896,4.176-11.259,4.176c-8.354,0-15.255-3.271-20.885-9.807c-3.271-3.813-6.174-9.08-8.718-15.617l-0.362-1.09
		h-6.719l5.085,35.774h6.354l0.185-1.453c0.183-1.09,0.546-1.998,1.091-2.905c0.182-0.545,0.906-0.728,1.998-0.728
		c0.182,0,1.634,0.183,8.172,2.543c5.267,1.814,10.352,2.726,15.255,2.726c9.624,0,17.797-2.904,23.971-8.354
		c6.356-5.631,9.625-12.713,9.625-21.066c0-6.354-1.813-11.805-5.445-16.522C489.864,58.575,483.87,53.67,475.337,48.404z"/>
	<path d="M607.726,62.932c-3.45-4.354-9.625-9.262-17.979-14.528l-13.259-8.173c-4.723-2.904-8.354-5.811-10.53-8.354
		c-1.997-2.361-3.091-5.267-3.091-8.717c0-3.813,1.271-6.538,3.996-8.717c2.728-2.18,5.992-3.27,9.625-3.27
		c4.902,0,9.987,1.816,15.072,5.448s8.717,9.988,11.078,19.25L603,37.324h7.081l-3.633-35.776h-6.175l-0.362,1.271
		c-0.36,1.271-0.727,2.361-1.271,3.087c-0.363,0.362-1.271,0.728-2.361,0.728c-0.182,0-1.452-0.183-7.809-2.361
		c-5.085-1.816-9.443-2.725-13.075-2.725c-8.717,0-15.979,2.725-21.43,8.172c-5.447,5.448-8.173,12.168-8.173,20.34
		c0,6.174,2.358,11.804,6.898,17.07c2.36,2.543,5.629,5.266,9.624,7.809l12.896,7.991c7.264,4.54,11.981,7.989,14.165,10.17
		c3.269,3.271,4.722,7.082,4.722,11.623c0,4.903-1.453,8.717-4.722,11.44c-3.271,2.726-6.901,4.176-11.263,4.176
		c-8.354,0-15.256-3.271-20.885-9.807c-3.271-3.813-6.175-9.08-8.717-15.617l-0.363-1.09h-6.72l5.085,35.774h6.354l0.183-1.453
		c0.182-1.09,0.545-1.998,0.908-2.905c0.182-0.545,0.907-0.728,1.997-0.728c0.183,0,1.635,0.183,8.173,2.543
		c5.267,1.814,10.352,2.726,15.255,2.726c9.625,0,17.797-2.904,23.972-8.354c6.355-5.631,9.625-12.713,9.625-21.066
		C613.174,73.102,611.358,67.655,607.726,62.932z"/>
</g>
</svg>
